<svg xmlns="http://www.w3.org/2000/svg" xml:space="preserve" id="Logo" x="0" y="0" version="1.1" viewBox="0 0 232 100"><style>.st0{fill:#010202}.st11{fill:#dc1868}.st22{fill:#e7263c}.st40{fill:#c4212e}.st41{fill:#ee422b}.st53{fill:#f16a2d}.st67{fill:#f89f27}.st74{fill:#c5972c}.st89{fill:#e4b62f}.st102{fill:#f7c318}.st109{fill:#5fba46}.st114{fill:#4a9f46}.st123{fill:#417f44}.st142{fill:#28bce1}.st152{fill:#1c95d2}.st165{fill:#04699d}.st173{fill:#17496b}.st181{fill:#a21c45}</style><g id="Group_291" transform="translate(.388 1.199)"><path id="Fill_1" d="M129.2 40.4c0-3.1-2.1-5.7-6.1-6.5l-3.1-.6c-1.6-.3-2.4-1.3-2.4-2.5 0-1.5 1.4-2.8 3.4-2.8 1.9-.2 3.7 1.2 4 3.1l3.8-1.2c-.5-2.5-2.5-5.7-7.9-5.7-4.1 0-7.6 3-7.6 6.9 0 3.3 2.3 5.6 5.8 6.3l3.1.6c1.7.3 2.7 1.3 2.7 2.6 0 1.5-1.3 2.7-3.6 2.7-2.4.2-4.6-1.6-4.8-4v-.1l-4 1c.3 3.1 2.9 6.9 8.7 6.9 5.2.1 8-3.3 8-6.7" class="st0"/><path id="Fill_3" d="M134.6 52.6h-4.1V31.4h4v1.9c1.1-1.5 2.8-2.3 4.7-2.2 2-.1 3.9.8 5.2 2.3 1.3 1.6 1.9 3.6 1.8 5.7 0 4.7-3 8-7.2 8-1.7.1-3.3-.6-4.4-1.9v7.4zm3.8-17.8c-2.2 0-3.8 1.8-3.8 4.3s1.6 4.3 3.8 4.3c2.3 0 3.8-1.7 3.8-4.3-.1-2.6-1.6-4.3-3.8-4.3z" class="st0"/><path id="Fill_5" d="M155.1 47.2c-2.1 0-4.2-.8-5.7-2.3-1.5-1.6-2.3-3.6-2.3-5.8 0-2.2.8-4.3 2.3-5.8 1.5-1.5 3.6-2.3 5.7-2.3s4.2.8 5.7 2.3c1.5 1.6 2.3 3.6 2.3 5.8 0 2.2-.8 4.2-2.3 5.8-1.6 1.5-3.6 2.3-5.7 2.3zm0-12.5c-1.9 0-3.9 1.3-3.9 4.3s2 4.3 3.9 4.3S159 42 159 39s-2-4.3-3.9-4.3z" class="st0"/><path id="Fill_7" d="M166.3 42.2c0 2.9 1.9 4.7 4.8 4.7.8 0 1.6-.1 2.3-.4v-3.4c-.4.1-.8.1-1.3.1-1.2 0-1.8-.4-1.8-1.8V35h3.1v-3.7h-3.1v-4.6h-3.7V29c.1 1.2-.7 2.3-2 2.4H163.4v3.7h2.8v7.1z" class="st0"/><path id="Fill_9" d="M175.3 46.7h4.1V24.2h-4.1v22.5z" class="st0"/><path id="Fill_11" d="M182 46.7h4.1V31.4H182v15.3z" class="st0"/><path id="Fill_12" d="M182 27.8h4.1v-3.6H182v3.6z" class="st0"/><path id="Fill_13" d="M195.3 53.1c-1.8 0-3.6-.5-5.1-1.7-1.2-.9-2.1-2.3-2.3-3.9l3.7-1c.3 1.7 1.8 3 3.6 2.9 2.7 0 4.1-1.4 4.1-4.2v-1.1c-1 1.3-2.6 2.1-4.2 2-1.9 0-3.7-.7-5.1-2.1-1.3-1.4-2.1-3.3-2-5.3 0-1.9.7-3.8 2-5.2 1.3-1.4 3.2-2.2 5.1-2.2 3 0 4.1 1.6 4.3 2.1v-1.8h4v13.6c.1 2-.6 4-1.8 5.6-1.7 1.5-4 2.4-6.3 2.3zm.4-18.3c-2 0-3.6 1.5-3.7 3.5v.3c-.2 2 1.3 3.7 3.2 3.9h.4c2 0 3.6-1.5 3.6-3.5v-.4c.1-2-1.4-3.7-3.3-3.8h-.2z" class="st0"/><path id="Fill_14" d="M214.2 31c-1.5-.1-3 .6-4.1 1.7v-8.5H206v22.5h4.1v-9c-.1-1.6 1.2-2.9 2.7-3h.1c2 0 2.8 1.3 2.8 3v8.9h4.1V37c.1-3.3-1.7-6-5.6-6" class="st0"/><path id="Fill_15" d="M231.2 35.1v-3.7h-3.1v-4.6h-3.7V29c.1 1.2-.8 2.3-2 2.4H221.2v3.7h2.8v7.1c0 2.9 1.9 4.7 4.8 4.7.8 0 1.6-.1 2.3-.4v-3.4c-.4.1-.8.1-1.3.1-1.2 0-1.8-.4-1.8-1.8V35h3.2z" class="st0"/><path id="Fill_16" d="M115.8 72.9h3.1v-22h-3.1v22z" class="st0"/><path id="Fill_17" d="M129.3 57.5c-1.9-.1-3.6.9-4.6 2.6V58h-2.8v14.9h2.9v-8.6c0-2.3 1.2-4.1 3.5-4.1 2.6 0 3.5 1.7 3.5 3.8v9h2.9v-9.5c0-3.4-1.8-6-5.4-6" class="st0"/><path id="Fill_18" d="M137.4 72.9h2.9V58h-2.9v14.9z" class="st0"/><path id="Fill_19" d="M148.2 53.2h-2.7v2.4c.1 1.1-.7 2.2-1.8 2.3H142.5v2.6h2.9v8.2c0 2.7 1.6 4.2 4.1 4.2.7 0 1.3-.1 2-.3v-2.5c-.4.1-.8.1-1.1.1-1.5 0-2.1-.7-2.1-2v-7.8h3.2V58h-3.2v-4.8z" class="st0"/><path id="Fill_20" d="M153.6 72.9h2.9V58h-2.9v14.9z" class="st0"/><path id="Fill_21" d="M164.5 73.3c-2.6.2-4.8-1.7-5-4.3v-.2c0-1.2.4-2.3 1.3-3.1.9-.8 2-1.3 3.2-1.4l4-.6c.8-.1 1.1-.5 1.1-1.1 0-1.7-1.2-2.7-3.2-2.7-1.7-.1-3.2 1.2-3.4 2.9v.1l-2.8-.7c.2-1.4.9-2.6 2-3.5 1.2-.9 2.6-1.4 4.1-1.3 1.7-.1 3.5.5 4.8 1.6 1 1 1.5 2.4 1.4 3.8v7.5c0 .8.1 1.6.2 2.5h-2.8c-.1-.7-.2-1.3-.2-2-1 1.7-2.8 2.6-4.7 2.5zm4.7-7.5-4.6.7c-1.2 0-2.2 1-2.2 2.2 0 1.2 1.1 2.2 2.3 2.2h.1c2 0 4.3-.8 4.3-4.4l.1-.7z" class="st0"/><path id="Fill_22" d="M178.9 53.2h-2.7v2.4c.1 1.1-.7 2.2-1.9 2.3H173.1v2.6h2.8v8.2c0 2.7 1.6 4.2 4.1 4.2.7 0 1.3-.1 2-.3v-2.5c-.4.1-.8.1-1.1.1-1.5 0-2.1-.7-2.1-2v-7.8h3.2V58h-3.2v-4.8z" class="st0"/><path id="Fill_23" d="M184.4 72.9h2.9V58h-2.9v14.9z" class="st0"/><path id="Fill_24" d="M137.4 54.2h2.9V51h-2.9v3.2z" class="st0"/><path id="Fill_25" d="M184.4 54.2h2.9V51h-2.9v3.2z" class="st0"/><path id="Fill_26" d="m201.2 58-4.3 11.5-4.2-11.5h-3.3l6 14.9h2.9l5.9-14.9h-3z" class="st0"/><path id="Fill_27" d="M211.6 73.3c-2 0-3.8-.7-5.2-2.1-1.5-1.6-2.3-3.7-2.2-5.9 0-2.1.7-4.1 2.2-5.7 1.3-1.4 3.1-2.2 5-2.2 2-.1 3.9.7 5.3 2.2 1.3 1.6 2 3.6 1.9 5.7 0 .3 0 .6-.1.9h-11.2c-.1 2.4 1.9 4.5 4.3 4.5h.2c1.9.1 3.7-1.1 4.2-3l2.5.9c-1.1 2.9-3.8 4.9-6.9 4.7zm-.3-13.2c-2.2 0-4 1.7-4 3.8h8.1c.1-2.1-1.6-3.8-3.6-3.8-.2-.1-.4 0-.5 0z" class="st0"/><path id="Fill_28" d="M156.3 47.1h-2.5l-.1 1.9h-1.5v1.8h1.4l-.1 1.7h2.9l-.1-1.7h1.5V49h-1.6l.1-1.9z" class="st0"/><path id="Fill_68" d="M53.4 22.8c0 .7-.5 1.2-1.2 1.2s-1.2-.5-1.2-1.2.5-1.2 1.2-1.2 1.2.5 1.2 1.2" style="fill:#fcf0f4"/><path id="Fill_69" d="M50 19.8c0 .7-.5 1.2-1.2 1.2s-1.2-.5-1.2-1.2.5-1.2 1.2-1.2c.6 0 1.2.5 1.2 1.2" style="fill:#f9e5ea"/><path id="Fill_70" d="M56.5 18.9c0 .7-.5 1.2-1.2 1.2s-1.2-.5-1.2-1.2.5-1.2 1.2-1.2 1.2.6 1.2 1.2" style="fill:#f9dae3"/><path id="Fill_71" d="M60.1 16c0 .7-.5 1.2-1.2 1.2s-1.2-.5-1.2-1.2.5-1.2 1.2-1.2 1.2.6 1.2 1.2" style="fill:#f3bacb"/><path id="Fill_72" d="M56 12.8c0 .7-.5 1.2-1.2 1.2s-1.2-.5-1.2-1.2.5-1.2 1.2-1.2c.6 0 1.2.6 1.2 1.2" style="fill:#ef9fb7"/><path id="Fill_73" d="M52.7 15.9c0 .7-.5 1.2-1.2 1.2s-1.2-.5-1.2-1.2.5-1.2 1.2-1.2 1.2.6 1.2 1.2" style="fill:#f7c9d6"/><path id="Fill_74" d="M59.8 10.4c0 .7-.5 1.2-1.2 1.2s-1.2-.5-1.2-1.2.5-1.2 1.2-1.2c.6-.1 1.2.5 1.2 1.2" style="fill:#e9789a"/><path id="Fill_75" d="M51.2 10.3c0 .7-.5 1.2-1.2 1.2s-1.2-.5-1.2-1.2.5-1.2 1.2-1.2 1.2.6 1.2 1.2" style="fill:#ee90ac"/><path id="Fill_76" d="M54.7 7.5c0 .7-.5 1.2-1.2 1.2s-1.2-.5-1.2-1.2.5-1.2 1.2-1.2 1.2.5 1.2 1.2" style="fill:#e65d86"/><path id="Fill_77" d="M63.8 8.5c0 .7-.5 1.2-1.2 1.2s-1.2-.5-1.2-1.2.5-1.2 1.2-1.2 1.2.5 1.2 1.2" style="fill:#e44877"/><path id="Fill_78" d="M68.3 7.3c0 .7-.5 1.2-1.2 1.2s-1.2-.5-1.2-1.2.5-1.2 1.2-1.2c.6 0 1.2.5 1.2 1.2" class="st11"/><path id="Fill_79" d="M68.3 12.4c0 .7-.5 1.2-1.2 1.2s-1.2-.5-1.2-1.2.5-1.2 1.2-1.2 1.2.5 1.2 1.2" style="fill:#e66399"/><path id="Fill_80" d="M64 13.8c0 .7-.5 1.2-1.2 1.2s-1.2-.5-1.2-1.2.5-1.2 1.2-1.2 1.2.5 1.2 1.2" style="fill:#ee92b8"/><path id="Fill_81" d="M67.6 17.8c0 .7-.5 1.2-1.2 1.2s-1.2-.5-1.2-1.2.5-1.2 1.2-1.2 1.2.6 1.2 1.2" style="fill:#f2aac7"/><path id="Fill_82" d="M71.8 16.7c0 .7-.5 1.2-1.2 1.2s-1.2-.5-1.2-1.2.5-1.2 1.2-1.2 1.3.5 1.2 1.2c.1 0 .1 0 0 0" style="fill:#ea80ac"/><path id="Fill_83" d="M72.7 11.6c0 .7-.5 1.2-1.2 1.2s-1.2-.5-1.2-1.2.5-1.2 1.2-1.2c.7-.1 1.2.5 1.2 1.2 0-.1 0-.1 0 0" class="st11"/><path id="Fill_84" d="M77.3 11.4c0 .7-.5 1.2-1.2 1.2s-1.2-.5-1.2-1.2.5-1.2 1.2-1.2c.7-.1 1.2.5 1.2 1.2" class="st11"/><path id="Fill_85" d="M76.3 16.3c0 .7-.5 1.2-1.2 1.2s-1.2-.5-1.2-1.2.5-1.2 1.2-1.2 1.2.5 1.2 1.2" style="fill:#e4508d"/><path id="Fill_86" d="M70.2 22.2c0 .7-.5 1.2-1.2 1.2s-1.2-.5-1.2-1.2.5-1.2 1.2-1.2c.6 0 1.2.5 1.2 1.2" style="fill:#f5c0d5"/><path id="Fill_87" d="M65.8 23.9c0 .7-.5 1.2-1.2 1.2s-1.2-.5-1.2-1.2.5-1.2 1.2-1.2c.6 0 1.2.5 1.2 1.2" style="fill:#f9dfe9"/><path id="Fill_88" d="M67.2 28.2c0 .7-.5 1.2-1.2 1.2s-1.2-.5-1.2-1.2.5-1.2 1.2-1.2 1.2.6 1.2 1.2" style="fill:#fbedf3"/><path id="Fill_89" d="M63.4 19.8c0 .7-.5 1.2-1.2 1.2s-1.2-.5-1.2-1.2.5-1.2 1.2-1.2c.6-.1 1.2.5 1.2 1.2" style="fill:#f8d0de"/><path id="Fill_90" d="M59.5 22.5c0 .7-.5 1.2-1.2 1.2s-1.2-.5-1.2-1.2.5-1.2 1.2-1.2 1.2.5 1.2 1.2" style="fill:#fbe7ee"/><path id="Fill_91" d="M80.9 16.6c0 .7-.5 1.2-1.2 1.2s-1.2-.5-1.2-1.2.5-1.2 1.2-1.2c.6 0 1.2.5 1.2 1.2" class="st22"/><path id="Fill_92" d="M85.5 17.3c0 .7-.5 1.2-1.2 1.2s-1.2-.5-1.2-1.2.5-1.2 1.2-1.2c.6-.1 1.2.5 1.2 1.2" class="st22"/><path id="Fill_93" d="M83.5 22.1c0 .7-.5 1.2-1.2 1.2s-1.2-.5-1.2-1.2.5-1.2 1.2-1.2 1.2.5 1.2 1.2" style="fill:#ea4659"/><path id="Fill_94" d="M88 23.5c0 .7-.5 1.2-1.2 1.2s-1.2-.5-1.2-1.2.5-1.2 1.2-1.2c.6 0 1.2.5 1.2 1.2" class="st22"/><path id="Fill_95" d="M85.3 27.7c0 .7-.5 1.2-1.2 1.2s-1.2-.5-1.2-1.2.5-1.2 1.2-1.2 1.2.5 1.2 1.2" style="fill:#ef6272"/><path id="Fill_96" d="M81.7 31.9c0 .7-.5 1.2-1.2 1.2s-1.2-.5-1.2-1.2.5-1.2 1.2-1.2 1.2.5 1.2 1.2" style="fill:#f6a5ae"/><path id="Fill_97" d="M80.9 26.7c0 .7-.5 1.2-1.2 1.2s-1.2-.5-1.2-1.2.5-1.2 1.2-1.2c.6 0 1.2.5 1.2 1.2" style="fill:#f38e9a"/><path id="Fill_98" d="M79.1 21.4c0 .7-.5 1.2-1.2 1.2s-1.2-.5-1.2-1.2.5-1.2 1.2-1.2c.6 0 1.2.5 1.2 1.2" style="fill:#f07483"/><path id="Fill_99" d="M74.6 21.5c0 .7-.5 1.2-1.2 1.2s-1.2-.5-1.2-1.2.5-1.2 1.2-1.2c.6-.1 1.2.5 1.2 1.2" style="fill:#f49da8"/><path id="Fill_100" d="M76.4 26.3c0 .7-.5 1.2-1.2 1.2S74 27 74 26.3s.5-1.2 1.2-1.2 1.2.6 1.2 1.2" style="fill:#f7b4bb"/><path id="Fill_101" d="M71.8 26.8c0 .7-.5 1.2-1.2 1.2s-1.2-.5-1.2-1.2.5-1.2 1.2-1.2c.7-.1 1.3.5 1.2 1.2.1 0 .1 0 0 0" style="fill:#fad7da"/><path id="Fill_102" d="M72.6 31.5c0 .7-.5 1.2-1.2 1.2s-1.2-.5-1.2-1.2.5-1.2 1.2-1.2c.6-.1 1.2.5 1.2 1.2" style="fill:#fbe4e6"/><path id="Fill_103" d="M77.3 31.3c0 .7-.5 1.2-1.2 1.2s-1.2-.5-1.2-1.2.5-1.2 1.2-1.2c.6 0 1.2.5 1.2 1.2" style="fill:#f9c9cf"/><path id="Fill_104" d="M77.2 36c0 .7-.5 1.2-1.2 1.2s-1.2-.5-1.2-1.2.5-1.2 1.2-1.2 1.2.6 1.2 1.2" style="fill:#f4d9da"/><path id="Fill_105" d="M76.1 40.6c0 .7-.5 1.2-1.2 1.2s-1.2-.5-1.2-1.2.5-1.2 1.2-1.2 1.2.6 1.2 1.2" style="fill:#f7e7e9"/><path id="Fill_106" d="M80.7 41.9c0 .7-.5 1.2-1.2 1.2s-1.2-.5-1.2-1.2.5-1.2 1.2-1.2c.6 0 1.2.6 1.2 1.2" style="fill:#f0cdd0"/><path id="Fill_107" d="M81.7 37.1c0 .7-.5 1.2-1.2 1.2s-1.2-.5-1.2-1.2.5-1.2 1.2-1.2 1.2.5 1.2 1.2" style="fill:#ecbabd"/><path id="Fill_108" d="M85.8 38.8c0 .7-.5 1.2-1.2 1.2s-1.2-.5-1.2-1.2.5-1.2 1.2-1.2 1.2.6 1.2 1.2" style="fill:#e3929a"/><path id="Fill_109" d="M84.8 44c0 .7-.5 1.2-1.2 1.2s-1.2-.5-1.2-1.2.5-1.2 1.2-1.2c.6 0 1.2.5 1.2 1.2" style="fill:#e8abb0"/><path id="Fill_110" d="M89.6 41.3c0 .7-.5 1.2-1.2 1.2s-1.2-.5-1.2-1.2.5-1.2 1.2-1.2 1.2.5 1.2 1.2" style="fill:#d66871"/><path id="Fill_111" d="M93 44.3c0 .7-.5 1.2-1.2 1.2s-1.2-.5-1.2-1.2.5-1.2 1.2-1.2c.6 0 1.2.5 1.2 1.2" class="st40"/><path id="Fill_112" d="M95.9 47.8c0 .7-.5 1.2-1.2 1.2s-1.2-.5-1.2-1.2.5-1.2 1.2-1.2 1.2.6 1.2 1.2" class="st41"/><path id="Fill_113" d="M88.3 46.8c0 .7-.5 1.2-1.2 1.2s-1.2-.5-1.2-1.2.5-1.2 1.2-1.2 1.2.5 1.2 1.2" style="fill:#f5948a"/><path id="Fill_114" d="M82.9 48.8c0 .7-.5 1.2-1.2 1.2s-1.2-.5-1.2-1.2.5-1.2 1.2-1.2c.6-.1 1.2.5 1.2 1.2" style="fill:#facbc5"/><path id="Fill_115" d="M78.8 46.3c0 .7-.5 1.2-1.2 1.2s-1.2-.5-1.2-1.2.5-1.2 1.2-1.2 1.2.6 1.2 1.2" style="fill:#fce5e1"/><path id="Fill_116" d="M76.2 50.1c0 .7-.5 1.2-1.2 1.2s-1.2-.5-1.2-1.2.5-1.2 1.2-1.2c.6 0 1.2.5 1.2 1.2" style="fill:#fdf0ee"/><path id="Fill_117" d="M80.2 52.8c0 .7-.5 1.2-1.2 1.2s-1.2-.5-1.2-1.2.5-1.2 1.2-1.2 1.2.6 1.2 1.2" style="fill:#fadad6"/><path id="Fill_118" d="M77 56.2c0 .7-.5 1.2-1.2 1.2s-1.2-.5-1.2-1.2.5-1.2 1.2-1.2c.6 0 1.2.5 1.2 1.2" style="fill:#fbe8e4"/><path id="Fill_119" d="M83.4 56.1c0 .7-.5 1.2-1.2 1.2s-1.2-.5-1.2-1.2.5-1.2 1.2-1.2 1.2.6 1.2 1.2" style="fill:#f9c0b9"/><path id="Fill_120" d="M86.2 51.9c0 .7-.5 1.2-1.2 1.2s-1.2-.5-1.2-1.2.5-1.2 1.2-1.2c.7-.1 1.2.5 1.2 1.2" style="fill:#f7aaa0"/><path id="Fill_121" d="M91.5 50.1c0 .7-.5 1.2-1.2 1.2s-1.2-.5-1.2-1.2.5-1.2 1.2-1.2c.6 0 1.2.5 1.2 1.2" style="fill:#f16c5c"/><path id="Fill_122" d="M89 55.3c0 .7-.5 1.2-1.2 1.2s-1.2-.5-1.2-1.2.5-1.2 1.2-1.2c.6 0 1.2.5 1.2 1.2" style="fill:#f38376"/><path id="Fill_123" d="M91.2 59.2c0 .7-.5 1.2-1.2 1.2s-1.2-.5-1.2-1.2.5-1.2 1.2-1.2 1.2.5 1.2 1.2" style="fill:#f05b48"/><path id="Fill_124" d="M96 58c0 .7-.5 1.2-1.2 1.2s-1.2-.5-1.2-1.2.5-1.2 1.2-1.2c.7-.1 1.2.5 1.2 1.2" class="st41"/><path id="Fill_125" d="M93.9 53.8c0 .7-.5 1.2-1.2 1.2s-1.2-.5-1.2-1.2.5-1.2 1.2-1.2 1.2.5 1.2 1.2" class="st41"/><path id="Fill_126" d="M92.8 63.6c0 .7-.5 1.2-1.2 1.2s-1.2-.5-1.2-1.2.5-1.2 1.2-1.2 1.2.5 1.2 1.2" class="st53"/><path id="Fill_127" d="M85.9 60c0 .7-.5 1.2-1.2 1.2s-1.2-.5-1.2-1.2.5-1.2 1.2-1.2c.7-.1 1.2.5 1.2 1.2" style="fill:#f8b192"/><path id="Fill_128" d="M87.8 64.1c0 .7-.5 1.2-1.2 1.2s-1.2-.5-1.2-1.2.5-1.2 1.2-1.2c.6-.1 1.2.5 1.2 1.2" style="fill:#f59264"/><path id="Fill_129" d="M89 68.5c0 .7-.5 1.2-1.2 1.2s-1.2-.5-1.2-1.2.5-1.2 1.2-1.2c.6-.1 1.2.5 1.2 1.2 0-.1 0 0 0 0" class="st53"/><path id="Fill_130" d="M89.5 73c0 .7-.5 1.2-1.2 1.2s-1.2-.5-1.2-1.2.5-1.2 1.2-1.2 1.2.5 1.2 1.2" class="st53"/><path id="Fill_131" d="M84.6 72.4c0 .7-.5 1.2-1.2 1.2s-1.2-.5-1.2-1.2.5-1.2 1.2-1.2c.6 0 1.2.6 1.2 1.2" style="fill:#f48655"/><path id="Fill_132" d="M83.8 67.9c0 .7-.5 1.2-1.2 1.2s-1.2-.5-1.2-1.2.5-1.2 1.2-1.2c.6 0 1.2.5 1.2 1.2" style="fill:#f7a680"/><path id="Fill_133" d="M82.3 63.8c0 .7-.5 1.2-1.2 1.2s-1.2-.5-1.2-1.2.5-1.2 1.2-1.2 1.2.5 1.2 1.2" style="fill:#fac2a9"/><path id="Fill_134" d="M80.1 59.8c0 .7-.5 1.2-1.2 1.2s-1.2-.5-1.2-1.2.5-1.2 1.2-1.2c.6 0 1.2.5 1.2 1.2" style="fill:#fbd9ca"/><path id="Fill_135" d="M76.2 62.6c0 .7-.5 1.2-1.2 1.2s-1.2-.5-1.2-1.2.5-1.2 1.2-1.2c.6-.1 1.2.5 1.2 1.2" style="fill:#fce5da"/><path id="Fill_136" d="M78.1 66.9c0 .7-.5 1.2-1.2 1.2s-1.2-.5-1.2-1.2.5-1.2 1.2-1.2c.7-.1 1.2.5 1.2 1.2" style="fill:#fad1be"/><path id="Fill_137" d="M71.9 64.5c0 .7-.5 1.2-1.2 1.2s-1.2-.5-1.2-1.2.5-1.2 1.2-1.2c.7-.1 1.2.5 1.2 1.2" style="fill:#fdf0eb"/><path id="Fill_138" d="M79.3 71.3c0 .7-.5 1.2-1.2 1.2s-1.2-.5-1.2-1.2.5-1.2 1.2-1.2c.7-.1 1.2.5 1.2 1.2" style="fill:#fbd098"/><path id="Fill_139" d="M73.7 69c0 .7-.5 1.2-1.2 1.2s-1.2-.5-1.2-1.2.5-1.2 1.2-1.2 1.2.5 1.2 1.2" style="fill:#fce9cf"/><path id="Fill_140" d="M74.6 73.5c0 .7-.5 1.2-1.2 1.2s-1.2-.5-1.2-1.2.5-1.2 1.2-1.2 1.2.5 1.2 1.2" style="fill:#fbdbae"/><path id="Fill_141" d="M79.7 75.7c0 .7-.5 1.2-1.2 1.2s-1.2-.5-1.2-1.2.5-1.2 1.2-1.2 1.2.5 1.2 1.2" style="fill:#fabd6b"/><path id="Fill_142" d="M84.6 77c0 .7-.5 1.2-1.2 1.2s-1.2-.5-1.2-1.2.5-1.2 1.2-1.2 1.2.5 1.2 1.2" class="st67"/><path id="Fill_143" d="M79.4 80.2c0 .7-.5 1.2-1.2 1.2s-1.2-.5-1.2-1.2.5-1.2 1.2-1.2c.6-.1 1.2.5 1.2 1.2" class="st67"/><path id="Fill_144" d="M74.6 77.9c0 .7-.5 1.2-1.2 1.2s-1.2-.5-1.2-1.2.5-1.2 1.2-1.2 1.2.6 1.2 1.2" style="fill:#fbca89"/><path id="Fill_145" d="M69.8 74.6c0 .7-.5 1.2-1.2 1.2s-1.2-.5-1.2-1.2.5-1.2 1.2-1.2c.6 0 1.2.6 1.2 1.2" style="fill:#fbe5c6"/><path id="Fill_146" d="M69.2 70.1c0 .7-.5 1.2-1.2 1.2s-1.2-.5-1.2-1.2.5-1.2 1.2-1.2c.6 0 1.2.5 1.2 1.2" style="fill:#fdf1e1"/><path id="Fill_147" d="M64.6 70.2c0 .7-.5 1.2-1.2 1.2s-1.2-.5-1.2-1.2.5-1.2 1.2-1.2c.6-.1 1.2.5 1.2 1.2" style="fill:#fef8f0"/><path id="Fill_148" d="M69.4 79.3c0 .7-.5 1.2-1.2 1.2s-1.2-.6-1.2-1.2c0-.7.5-1.2 1.2-1.2.6 0 1.2.5 1.2 1.2" style="fill:#fad5a2"/><path id="Fill_149" d="M73.9 82.4c0 .7-.5 1.2-1.2 1.2s-1.2-.5-1.2-1.2.5-1.2 1.2-1.2 1.2.5 1.2 1.2" style="fill:#f9b65d"/><path id="Fill_150" d="M78.4 84.6c0 .7-.5 1.2-1.2 1.2s-1.2-.5-1.2-1.2.5-1.2 1.2-1.2c.6 0 1.2.6 1.2 1.2" class="st67"/><path id="Fill_151" d="M72.5 86.7c0 .7-.5 1.2-1.2 1.2s-1.2-.5-1.2-1.2.5-1.2 1.2-1.2 1.2.5 1.2 1.2" class="st74"/><path id="Fill_152" d="M70.4 90.8c0 .7-.5 1.2-1.2 1.2s-1.2-.5-1.2-1.2.5-1.2 1.2-1.2 1.2.5 1.2 1.2" class="st74"/><path id="Fill_153" d="M66.6 87.8c0 .7-.5 1.2-1.2 1.2s-1.2-.5-1.2-1.2.5-1.2 1.2-1.2c.6 0 1.2.6 1.2 1.2" style="fill:#d0aa51"/><path id="Fill_154" d="M68.4 83.6c0 .7-.5 1.2-1.2 1.2s-1.2-.5-1.2-1.2.5-1.2 1.2-1.2c.6 0 1.2.5 1.2 1.2" style="fill:#dcbf7d"/><path id="Fill_155" d="M64.3 79.7c0 .7-.5 1.2-1.2 1.2s-1.2-.5-1.2-1.2.5-1.2 1.2-1.2c.6 0 1.2.6 1.2 1.2" style="fill:#ebdcba"/><path id="Fill_156" d="M64.9 75.1c0 .7-.5 1.2-1.2 1.2s-1.2-.5-1.2-1.2.5-1.2 1.2-1.2 1.2.5 1.2 1.2" style="fill:#f4ebda"/><path id="Fill_157" d="M60.3 74.5c0 .7-.5 1.2-1.2 1.2s-1.2-.5-1.2-1.2.5-1.2 1.2-1.2 1.2.6 1.2 1.2" style="fill:#f8f3e8"/><path id="Fill_158" d="M54.8 77.7c0 .7-.5 1.2-1.2 1.2s-1.2-.5-1.2-1.2.5-1.2 1.2-1.2 1.2.6 1.2 1.2" style="fill:#f6f0e1"/><path id="Fill_159" d="M50.8 75.4c0 .7-.5 1.2-1.2 1.2s-1.2-.5-1.2-1.2.5-1.2 1.2-1.2c.6 0 1.2.5 1.2 1.2" style="fill:#fdf9f0"/><path id="Fill_160" d="M44.7 76.7c0 .7-.5 1.2-1.2 1.2s-1.2-.5-1.2-1.2.5-1.2 1.2-1.2 1.2.5 1.2 1.2" style="fill:#fbf4e3"/><path id="Fill_161" d="M48.3 79.7c0 .7-.5 1.2-1.2 1.2s-1.2-.5-1.2-1.2.5-1.2 1.2-1.2c.7-.1 1.2.5 1.2 1.2" style="fill:#f8f0d8"/><path id="Fill_162" d="M52.8 81.9c0 .7-.5 1.2-1.2 1.2s-1.2-.5-1.2-1.2.5-1.2 1.2-1.2c.6 0 1.2.5 1.2 1.2" style="fill:#f6eac7"/><path id="Fill_163" d="M45.3 83.2c0 .7-.5 1.2-1.2 1.2s-1.2-.5-1.2-1.2.5-1.2 1.2-1.2 1.2.5 1.2 1.2" style="fill:#f5e5b9"/><path id="Fill_164" d="M49.9 85.5c0 .7-.5 1.2-1.2 1.2s-1.2-.5-1.2-1.2.5-1.2 1.2-1.2 1.2.5 1.2 1.2" style="fill:#f3dfa6"/><path id="Fill_165" d="M55.2 87.1c0 .7-.5 1.2-1.2 1.2s-1.2-.5-1.2-1.2.5-1.2 1.2-1.2 1.2.5 1.2 1.2" style="fill:#efd68c"/><path id="Fill_166" d="M52.1 90.4c0 .7-.5 1.2-1.2 1.2s-1.2-.5-1.2-1.2.5-1.2 1.2-1.2 1.2.6 1.2 1.2" style="fill:#eac865"/><path id="Fill_167" d="M54.7 94.8c0 .7-.5 1.2-1.2 1.2s-1.2-.5-1.2-1.2.5-1.2 1.2-1.2c.7-.1 1.2.5 1.2 1.2" class="st89"/><path id="Fill_168" d="M48.6 93.3c0 .7-.5 1.2-1.2 1.2s-1.2-.5-1.2-1.2.5-1.2 1.2-1.2 1.2.6 1.2 1.2" class="st89"/><path id="Fill_169" d="M44.7 95.8c0 .7-.5 1.2-1.2 1.2s-1.2-.5-1.2-1.2.5-1.2 1.2-1.2c.6 0 1.2.5 1.2 1.2" class="st89"/><path id="Fill_170" d="M42.9 91.1c0 .7-.5 1.2-1.2 1.2s-1.2-.5-1.2-1.2.5-1.2 1.2-1.2 1.2.5 1.2 1.2" style="fill:#e8c154"/><path id="Fill_171" d="M46.7 88.6c0 .7-.5 1.2-1.2 1.2s-1.2-.5-1.2-1.2.5-1.2 1.2-1.2 1.2.5 1.2 1.2" style="fill:#eed180"/><path id="Fill_172" d="M42 73.1c0 .7-.5 1.2-1.2 1.2s-1.2-.5-1.2-1.2.5-1.2 1.2-1.2c.6 0 1.2.5 1.2 1.2" style="fill:#fffaee"/><path id="Fill_173" d="M36 72.4c0 .7-.5 1.2-1.2 1.2s-1.2-.5-1.2-1.2.5-1.2 1.2-1.2 1.2.5 1.2 1.2" style="fill:#fdf8eb"/><path id="Fill_174" d="M38.2 76.5c0 .7-.5 1.2-1.2 1.2s-1.2-.5-1.2-1.2.5-1.2 1.2-1.2c.7-.1 1.2.5 1.2 1.2" style="fill:#fcf5dc"/><path id="Fill_175" d="M41.4 80.1c0 .7-.5 1.2-1.2 1.2s-1.2-.5-1.2-1.2.5-1.2 1.2-1.2 1.2.5 1.2 1.2" style="fill:#fef1cc"/><path id="Fill_176" d="M41.9 86c0 .7-.5 1.2-1.2 1.2s-1.2-.5-1.2-1.2.5-1.2 1.2-1.2c.6 0 1.2.5 1.2 1.2" style="fill:#fae08a"/><path id="Fill_177" d="M37.6 82.6c0 .7-.5 1.2-1.2 1.2s-1.2-.5-1.2-1.2.5-1.2 1.2-1.2 1.2.6 1.2 1.2" style="fill:#fbe6a3"/><path id="Fill_178" d="M34.2 78.8c0 .7-.5 1.2-1.2 1.2s-1.2-.5-1.2-1.2.5-1.2 1.2-1.2 1.2.5 1.2 1.2" style="fill:#fbeebf"/><path id="Fill_179" d="M30 80.3c0 .7-.5 1.2-1.2 1.2s-1.2-.5-1.2-1.2.5-1.2 1.2-1.2 1.2.5 1.2 1.2" style="fill:#fae498"/><path id="Fill_180" d="M33.5 84.4c0 .7-.5 1.2-1.2 1.2s-1.2-.5-1.2-1.2.5-1.2 1.2-1.2c.6 0 1.2.6 1.2 1.2" style="fill:#fadd7c"/><path id="Fill_181" d="M37.9 88.1c0 .7-.5 1.2-1.2 1.2s-1.2-.5-1.2-1.2.5-1.2 1.2-1.2 1.2.5 1.2 1.2" style="fill:#fad65d"/><path id="Fill_182" d="M38.8 93.1c0 .7-.5 1.2-1.2 1.2s-1.2-.5-1.2-1.2.5-1.2 1.2-1.2 1.2.5 1.2 1.2" class="st102"/><path id="Fill_183" d="M33.7 89.6c0 .7-.5 1.2-1.2 1.2s-1.2-.5-1.2-1.2.5-1.2 1.2-1.2c.6 0 1.2.6 1.2 1.2" class="st102"/><path id="Fill_184" d="M29.1 90.6c0 .7-.5 1.2-1.2 1.2s-1.2-.5-1.2-1.2.5-1.2 1.2-1.2 1.2.5 1.2 1.2" class="st102"/><path id="Fill_185" d="M29.2 85.6c0 .7-.5 1.2-1.2 1.2s-1.2-.5-1.2-1.2.5-1.2 1.2-1.2c.6 0 1.2.5 1.2 1.2" class="st102"/><path id="Fill_186" d="M31.7 74.5c0 .7-.5 1.2-1.2 1.2s-1.2-.5-1.2-1.2.5-1.2 1.2-1.2 1.2.6 1.2 1.2" style="fill:#deeed9"/><path id="Fill_187" d="M30.1 70.1c0 .7-.5 1.2-1.2 1.2s-1.2-.5-1.2-1.2.5-1.2 1.2-1.2c.7-.1 1.2.5 1.2 1.2" style="fill:#edf5e9"/><path id="Fill_188" d="M29.6 65.5c0 .7-.5 1.2-1.2 1.2s-1.2-.5-1.2-1.2.5-1.2 1.2-1.2c.6 0 1.2.5 1.2 1.2" style="fill:#f5faf4"/><path id="Fill_189" d="M25.5 71c0 .7-.5 1.2-1.2 1.2s-1.2-.5-1.2-1.2.5-1.2 1.2-1.2c.6 0 1.2.6 1.2 1.2" style="fill:#d7ead1"/><path id="Fill_190" d="M20.9 71.1c0 .7-.5 1.2-1.2 1.2s-1.2-.5-1.2-1.2.5-1.2 1.2-1.2 1.2.5 1.2 1.2" style="fill:#c0dfb5"/><path id="Fill_191" d="M18.3 75.7c0 .7-.5 1.2-1.2 1.2s-1.2-.5-1.2-1.2.5-1.2 1.2-1.2 1.2.6 1.2 1.2" style="fill:#92cb7e"/><path id="Fill_192" d="M13.9 74.8c0 .7-.5 1.2-1.2 1.2s-1.2-.5-1.2-1.2.5-1.2 1.2-1.2 1.2.5 1.2 1.2" class="st109"/><path id="Fill_193" d="M16.5 80.6c0 .7-.5 1.2-1.2 1.2s-1.2-.5-1.2-1.2.5-1.2 1.2-1.2c.7-.1 1.2.5 1.2 1.2 0-.1 0-.1 0 0" class="st109"/><path id="Fill_194" d="M21.1 81c0 .7-.5 1.2-1.2 1.2s-1.2-.5-1.2-1.2.5-1.2 1.2-1.2c.6 0 1.2.6 1.2 1.2" class="st109"/><path id="Fill_195" d="M24.6 86.1c0 .7-.5 1.2-1.2 1.2s-1.2-.5-1.2-1.2.5-1.2 1.2-1.2 1.2.5 1.2 1.2" class="st109"/><path id="Fill_196" d="M25.6 81c0 .7-.5 1.2-1.2 1.2s-1.2-.5-1.2-1.2.5-1.2 1.2-1.2c.6 0 1.2.5 1.2 1.2" style="fill:#9ccf8b"/><path id="Fill_197" d="M22.8 76.2c0 .7-.5 1.2-1.2 1.2s-1.2-.5-1.2-1.2.5-1.2 1.2-1.2c.7-.1 1.2.5 1.2 1.2" style="fill:#aed7a0"/><path id="Fill_198" d="M27.3 75.8c0 .7-.5 1.2-1.2 1.2s-1.2-.5-1.2-1.2.5-1.2 1.2-1.2c.6 0 1.2.5 1.2 1.2" style="fill:#c8e3be"/><path id="Fill_199" d="M16.6 70.4c0 .7-.5 1.2-1.2 1.2s-1.2-.5-1.2-1.2.5-1.2 1.2-1.2c.7-.1 1.2.5 1.2 1.2" style="fill:#96c793"/><path id="Fill_200" d="M9.6 73.1c0 .7-.5 1.2-1.2 1.2s-1.2-.5-1.2-1.2.5-1.2 1.2-1.2c.6 0 1.2.5 1.2 1.2" class="st114"/><path id="Fill_201" d="M24.8 66.2c0 .7-.5 1.2-1.2 1.2s-1.2-.5-1.2-1.2.5-1.2 1.2-1.2c.6 0 1.2.5 1.2 1.2" style="fill:#e3f0e3"/><path id="Fill_202" d="M25 61.5c0 .7-.5 1.2-1.2 1.2s-1.2-.5-1.2-1.2.5-1.2 1.2-1.2c.6 0 1.2.6 1.2 1.2" style="fill:#eff6ef"/><path id="Fill_203" d="M20.2 61c0 .7-.5 1.2-1.2 1.2s-1.2-.5-1.2-1.2.5-1.2 1.2-1.2 1.2.5 1.2 1.2" style="fill:#dbebd9"/><path id="Fill_204" d="M20.2 65.9c0 .7-.5 1.2-1.2 1.2s-1.2-.5-1.2-1.2.5-1.2 1.2-1.2c.6 0 1.2.6 1.2 1.2" style="fill:#c9e1c8"/><path id="Fill_205" d="M15.7 64.9c0 .7-.5 1.2-1.2 1.2s-1.2-.5-1.2-1.2.5-1.2 1.2-1.2 1.2.5 1.2 1.2" style="fill:#add3aa"/><path id="Fill_206" d="M12.3 68.9c0 .7-.5 1.2-1.2 1.2s-1.2-.5-1.2-1.2.5-1.2 1.2-1.2c.6 0 1.2.5 1.2 1.2" style="fill:#73b46e"/><path id="Fill_207" d="M8.2 66.8c0 .7-.5 1.2-1.2 1.2s-1.2-.5-1.2-1.2.5-1.2 1.2-1.2c.6 0 1.2.6 1.2 1.2" class="st114"/><path id="Fill_208" d="M11.6 63.1c0 .7-.5 1.2-1.2 1.2s-1.2-.5-1.2-1.2.5-1.2 1.2-1.2 1.2.5 1.2 1.2" style="fill:#8dc188"/><path id="Fill_209" d="M15.8 59.6c0 .7-.5 1.2-1.2 1.2s-1.2-.5-1.2-1.2.5-1.2 1.2-1.2c.7-.1 1.2.5 1.2 1.2" style="fill:#c1ddbe"/><path id="Fill_210" d="M7.8 60.7c0 .7-.5 1.2-1.2 1.2s-1.2-.5-1.2-1.2.5-1.2 1.2-1.2 1.2.5 1.2 1.2" class="st114"/><path id="Fill_211" d="M4.3 57.7c0 .7-.5 1.2-1.2 1.2s-1.2-.5-1.2-1.2.5-1.2 1.2-1.2 1.2.6 1.2 1.2" class="st123"/><path id="Fill_212" d="M11.9 57.4c0 .7-.5 1.2-1.2 1.2s-1.2-.5-1.2-1.2.5-1.2 1.2-1.2 1.2.6 1.2 1.2" style="fill:#9dbc9f"/><path id="Fill_213" d="M21.2 56.3c0 .7-.5 1.2-1.2 1.2s-1.2-.5-1.2-1.2.5-1.2 1.2-1.2c.7-.1 1.2.5 1.2 1.2 0-.1 0 0 0 0" style="fill:#e7eee7"/><path id="Fill_214" d="M23.1 52.1c0 .7-.5 1.2-1.2 1.2s-1.2-.5-1.2-1.2.5-1.2 1.2-1.2 1.2.5 1.2 1.2" style="fill:#f1f5f1"/><path id="Fill_215" d="M18.8 50c0 .7-.5 1.2-1.2 1.2s-1.2-.5-1.2-1.2.5-1.2 1.2-1.2c.6 0 1.2.6 1.2 1.2" style="fill:#dfe9de"/><path id="Fill_216" d="M16.8 54.6c0 .7-.5 1.2-1.2 1.2s-1.2-.5-1.2-1.2.5-1.2 1.2-1.2 1.2.5 1.2 1.2" style="fill:#d0decf"/><path id="Fill_217" d="M13.1 52.1c0 .7-.5 1.2-1.2 1.2s-1.2-.5-1.2-1.2.5-1.2 1.2-1.2c.6 0 1.2.6 1.2 1.2" style="fill:#b2cab3"/><path id="Fill_218" d="M15 47.3c0 .7-.5 1.2-1.2 1.2s-1.2-.5-1.2-1.2.5-1.2 1.2-1.2 1.2.5 1.2 1.2" style="fill:#c5d7c5"/><path id="Fill_219" d="M9.8 49.1c0 .7-.5 1.2-1.2 1.2s-1.2-.5-1.2-1.2.5-1.2 1.2-1.2c.6-.1 1.2.5 1.2 1.2" style="fill:#92b593"/><path id="Fill_220" d="M8.3 54.6c0 .7-.5 1.2-1.2 1.2s-1.2-.5-1.2-1.2.5-1.2 1.2-1.2c.6 0 1.2.6 1.2 1.2" style="fill:#78a379"/><path id="Fill_221" d="M5.1 51.4c0 .7-.5 1.2-1.2 1.2s-1.2-.5-1.2-1.2.5-1.2 1.2-1.2 1.2.5 1.2 1.2" class="st123"/><path id="Fill_222" d="M2.4 47.7c0 .7-.5 1.2-1.2 1.2S0 48.3 0 47.7c0-.7.5-1.2 1.2-1.2.7-.1 1.2.5 1.2 1.2" class="st123"/><path id="Fill_223" d="M6.9 45.5c0 .7-.5 1.2-1.2 1.2s-1.2-.5-1.2-1.2.5-1.2 1.2-1.2c.7-.1 1.2.5 1.2 1.2" style="fill:#6b9b6c"/><path id="Fill_224" d="M21.4 46.1c0 .7-.5 1.2-1.2 1.2s-1.2-.5-1.2-1.2.5-1.2 1.2-1.2 1.2.5 1.2 1.2" style="fill:#eaf6fa"/><path id="Fill_225" d="M17.7 43c0 .7-.5 1.2-1.2 1.2s-1.2-.5-1.2-1.2.5-1.2 1.2-1.2 1.2.5 1.2 1.2" style="fill:#d2edf4"/><path id="Fill_226" d="M21.1 39.5c0 .7-.5 1.2-1.2 1.2s-1.2-.5-1.2-1.2.5-1.2 1.2-1.2c.6 0 1.2.6 1.2 1.2" style="fill:#e2f3f8"/><path id="Fill_227" d="M24.9 36.9c0 .7-.5 1.2-1.2 1.2s-1.2-.5-1.2-1.2.5-1.2 1.2-1.2 1.2.5 1.2 1.2" style="fill:#eef8fb"/><path id="Fill_228" d="M18.4 35.7c0 .7-.5 1.2-1.2 1.2s-1.2-.5-1.2-1.2.5-1.2 1.2-1.2c.6 0 1.2.5 1.2 1.2" style="fill:#c6e8f3"/><path id="Fill_229" d="M14.9 39.4c0 .7-.5 1.2-1.2 1.2s-1.2-.5-1.2-1.2.5-1.2 1.2-1.2c.6 0 1.2.5 1.2 1.2" style="fill:#b3e2f0"/><path id="Fill_230" d="M12 43.9c0 .7-.5 1.2-1.2 1.2s-1.2-.5-1.2-1.2.5-1.2 1.2-1.2 1.2.6 1.2 1.2" style="fill:#9fdbed"/><path id="Fill_231" d="M9.4 40.2c0 .7-.5 1.2-1.2 1.2S7 40.9 7 40.2c0-.6.5-1.2 1.2-1.2s1.2.6 1.2 1.2" style="fill:#75cee6"/><path id="Fill_232" d="M4.6 41.6c0 .7-.5 1.2-1.2 1.2s-1.2-.5-1.2-1.2.5-1.2 1.2-1.2 1.2.6 1.2 1.2" class="st142"/><path id="Fill_233" d="M7.6 36.1c0 .7-.5 1.2-1.2 1.2s-1.2-.5-1.2-1.2.5-1.2 1.2-1.2 1.2.5 1.2 1.2" class="st142"/><path id="Fill_234" d="M12.7 35.5c0 .7-.5 1.2-1.2 1.2s-1.2-.5-1.2-1.2.5-1.2 1.2-1.2 1.2.5 1.2 1.2" style="fill:#90d6ea"/><path id="Fill_235" d="M11.2 31.3c0 .7-.5 1.2-1.2 1.2s-1.2-.5-1.2-1.2.5-1.2 1.2-1.2 1.2.5 1.2 1.2" style="fill:#67cbe6"/><path id="Fill_236" d="M6.3 31.7c0 .7-.5 1.2-1.2 1.2s-1.2-.5-1.2-1.2.5-1.2 1.2-1.2 1.2.5 1.2 1.2" class="st142"/><path id="Fill_237" d="M16.5 31.6c0 .7-.5 1.2-1.2 1.2s-1.2-.5-1.2-1.2.5-1.2 1.2-1.2 1.2.5 1.2 1.2" style="fill:#9dd0eb"/><path id="Fill_238" d="M22.4 32.8c0 .7-.5 1.2-1.2 1.2s-1.2-.5-1.2-1.2.5-1.2 1.2-1.2 1.2.6 1.2 1.2" style="fill:#d5eaf5"/><path id="Fill_239" d="M26.7 30.8c0 .7-.5 1.2-1.2 1.2s-1.2-.5-1.2-1.2.5-1.2 1.2-1.2c.7-.1 1.2.5 1.2 1.2" style="fill:#e5f3fa"/><path id="Fill_240" d="M31.2 29.8c0 .7-.5 1.2-1.2 1.2s-1.2-.5-1.2-1.2.5-1.2 1.2-1.2 1.2.5 1.2 1.2" style="fill:#f1f9fd"/><path id="Fill_241" d="M25.4 26.3c0 .7-.5 1.2-1.2 1.2s-1.2-.6-1.2-1.2.5-1.2 1.2-1.2c.6 0 1.2.5 1.2 1.2" style="fill:#c9e5f3"/><path id="Fill_242" d="M20.8 28.5c0 .7-.5 1.2-1.2 1.2s-1.2-.5-1.2-1.2.5-1.2 1.2-1.2c.7-.1 1.2.5 1.2 1.2" style="fill:#b8def0"/><path id="Fill_243" d="M15.4 27.2c0 .7-.5 1.2-1.2 1.2s-1.2-.5-1.2-1.2.5-1.2 1.2-1.2 1.2.5 1.2 1.2" style="fill:#77c1e5"/><path id="Fill_244" d="M10.4 26.8c0 .7-.5 1.2-1.2 1.2S8 27.5 8 26.8s.5-1.2 1.2-1.2c.6-.1 1.2.5 1.2 1.2" class="st152"/><path id="Fill_245" d="M10.1 22.1c0 .7-.5 1.2-1.2 1.2s-1.2-.5-1.2-1.2.5-1.2 1.2-1.2 1.2.5 1.2 1.2" class="st152"/><path id="Fill_246" d="M15 22.7c0 .7-.5 1.2-1.2 1.2s-1.2-.5-1.2-1.2.5-1.2 1.2-1.2 1.2.6 1.2 1.2" style="fill:#43a9d9"/><path id="Fill_247" d="M20.1 24c0 .7-.5 1.2-1.2 1.2s-1.2-.5-1.2-1.2.5-1.2 1.2-1.2c.6 0 1.2.5 1.2 1.2" style="fill:#91cce7"/><path id="Fill_248" d="M24.9 21.8c0 .7-.5 1.2-1.2 1.2s-1.2-.5-1.2-1.2.5-1.2 1.2-1.2 1.2.5 1.2 1.2" style="fill:#a9d6ee"/><path id="Fill_249" d="M20 19.6c0 .7-.5 1.2-1.2 1.2s-1.2-.5-1.2-1.2.5-1.2 1.2-1.2c.6 0 1.2.5 1.2 1.2" class="st152"/><path id="Fill_250" d="M15.2 18.2c0 .7-.5 1.2-1.2 1.2s-1.2-.5-1.2-1.2.5-1.2 1.2-1.2c.6 0 1.2.5 1.2 1.2" class="st152"/><path id="Fill_251" d="M30.1 25.1c0 .7-.5 1.2-1.2 1.2s-1.2-.5-1.2-1.2.5-1.2 1.2-1.2c.7-.1 1.2.5 1.2 1.2" style="fill:#d6e6ed"/><path id="Fill_252" d="M34.8 24.8c0 .7-.5 1.2-1.2 1.2s-1.2-.5-1.2-1.2.5-1.2 1.2-1.2c.6-.1 1.2.5 1.2 1.2" style="fill:#e9f1f5"/><path id="Fill_253" d="M35 20c0 .7-.5 1.2-1.2 1.2s-1.2-.5-1.2-1.2.5-1.2 1.2-1.2c.6 0 1.2.6 1.2 1.2" style="fill:#cce0ea"/><path id="Fill_254" d="M36 15.6c0 .7-.5 1.2-1.2 1.2s-1.2-.5-1.2-1.2.5-1.2 1.2-1.2 1.2.5 1.2 1.2" style="fill:#a7cadc"/><path id="Fill_255" d="M30.7 16c0 .7-.5 1.2-1.2 1.2s-1.2-.5-1.2-1.2.5-1.2 1.2-1.2 1.2.5 1.2 1.2" style="fill:#8dbad2"/><path id="Fill_256" d="M30 20.5c0 .7-.5 1.2-1.2 1.2s-1.2-.5-1.2-1.2.5-1.2 1.2-1.2c.6-.1 1.2.5 1.2 1.2" style="fill:#b7d3e2"/><path id="Fill_257" d="M25.3 17.3c0 .7-.5 1.2-1.2 1.2s-1.2-.5-1.2-1.2.5-1.2 1.2-1.2c.6 0 1.2.6 1.2 1.2" style="fill:#71aac6"/><path id="Fill_258" d="M26.4 12.9c0 .7-.5 1.2-1.2 1.2s-1.2-.5-1.2-1.2.5-1.2 1.2-1.2 1.2.5 1.2 1.2" style="fill:#3f8db4"/><path id="Fill_259" d="M32.1 11.8c0 .7-.5 1.2-1.2 1.2s-1.2-.5-1.2-1.2.5-1.2 1.2-1.2c.6-.1 1.2.5 1.2 1.2" style="fill:#5d9ebf"/><path id="Fill_260" d="M28.1 8.7c0 .7-.5 1.2-1.2 1.2s-1.2-.5-1.2-1.2.5-1.2 1.2-1.2c.7-.1 1.2.5 1.2 1.2" class="st165"/><path id="Fill_261" d="M22 10.6c0 .7-.5 1.2-1.2 1.2s-1.2-.5-1.2-1.2.5-1.2 1.2-1.2c.6 0 1.2.5 1.2 1.2" class="st165"/><path id="Fill_262" d="M20.7 15c0 .7-.5 1.2-1.2 1.2s-1.2-.5-1.2-1.2.5-1.2 1.2-1.2c.6-.1 1.2.5 1.2 1.2" class="st165"/><path id="Fill_263" d="M39.7 20.5c0 .7-.5 1.2-1.2 1.2s-1.2-.5-1.2-1.2.5-1.2 1.2-1.2 1.2.6 1.2 1.2" style="fill:#dfe6ea"/><path id="Fill_264" d="M44.1 22.1c0 .7-.5 1.2-1.2 1.2s-1.2-.5-1.2-1.2.5-1.2 1.2-1.2 1.2.5 1.2 1.2" style="fill:#eef1f3"/><path id="Fill_265" d="M45.8 17.5c0 .7-.5 1.2-1.2 1.2s-1.2-.5-1.2-1.2.5-1.2 1.2-1.2c.6 0 1.2.6 1.2 1.2" style="fill:#d5dde3"/><path id="Fill_266" d="M41.1 16.1c0 .7-.5 1.2-1.2 1.2s-1.2-.5-1.2-1.2.5-1.2 1.2-1.2 1.2.5 1.2 1.2" style="fill:#c4d0d7"/><path id="Fill_267" d="M43.2 12.1c0 .7-.5 1.2-1.2 1.2s-1.2-.5-1.2-1.2.5-1.2 1.2-1.2 1.2.5 1.2 1.2" style="fill:#9fb2c1"/><path id="Fill_268" d="M48.2 13.7c0 .7-.5 1.2-1.2 1.2s-1.2-.5-1.2-1.2.5-1.2 1.2-1.2 1.2.5 1.2 1.2" style="fill:#b4c3ce"/><path id="Fill_269" d="M45.9 8.6c0 .7-.5 1.2-1.2 1.2s-1.2-.5-1.2-1.2.5-1.2 1.2-1.2 1.2.5 1.2 1.2" style="fill:#7793a6"/><path id="Fill_270" d="M40.2 7.6c0 .7-.5 1.2-1.2 1.2s-1.2-.5-1.2-1.2.5-1.2 1.2-1.2c.6 0 1.2.6 1.2 1.2" class="st173"/><path id="Fill_271" d="M37.8 11.5c0 .7-.5 1.2-1.2 1.2s-1.2-.5-1.2-1.2.5-1.2 1.2-1.2c.6-.1 1.2.5 1.2 1.2" style="fill:#87a0b1"/><path id="Fill_272" d="M34.2 7.6c0 .7-.5 1.2-1.2 1.2s-1.2-.5-1.2-1.2.5-1.2 1.2-1.2 1.2.5 1.2 1.2" class="st173"/><path id="Fill_273" d="M36.9 3.9c0 .7-.5 1.2-1.2 1.2s-1.2-.5-1.2-1.2.5-1.2 1.2-1.2c.6 0 1.2.5 1.2 1.2" class="st173"/><path id="Fill_274" d="M43.2 4.3c0 .7-.5 1.2-1.2 1.2s-1.2-.5-1.2-1.2.5-1.2 1.2-1.2 1.2.5 1.2 1.2" class="st173"/><path id="Fill_275" d="M46.8 1.2c0 .7-.5 1.2-1.2 1.2s-1.2-.5-1.2-1.2.5-1.2 1.2-1.2c.6 0 1.2.5 1.2 1.2" class="st173"/><path id="Fill_276" d="M59.3 79.2c0 .7-.5 1.2-1.2 1.2s-1.2-.5-1.2-1.2.5-1.2 1.2-1.2c.7-.1 1.2.5 1.2 1.2" style="fill:#f1e6cf"/><path id="Fill_277" d="M62.9 84c0 .7-.6 1.2-1.3 1.1-.7 0-1.2-.6-1.1-1.3 0-.7.6-1.2 1.3-1.1.6.1 1.1.6 1.1 1.3" style="fill:#e3cc99"/><path id="Fill_278" d="M57.6 83.3c0 .7-.5 1.2-1.2 1.2s-1.2-.5-1.2-1.2.5-1.2 1.2-1.2c.6 0 1.2.5 1.2 1.2" style="fill:#e9d8b0"/><path id="Fill_279" d="M60.7 88c0 .7-.5 1.2-1.2 1.2s-1.2-.5-1.2-1.2.5-1.2 1.2-1.2 1.2.5 1.2 1.2" style="fill:#d8b86f"/><path id="Fill_280" d="M64.2 91.7c0 .7-.5 1.2-1.2 1.2s-1.2-.5-1.2-1.2.5-1.2 1.2-1.2c.6 0 1.2.5 1.2 1.2" class="st74"/><path id="Fill_281" d="M58 91.6c0 .7-.5 1.2-1.2 1.2s-1.2-.5-1.2-1.2.5-1.2 1.2-1.2c.6 0 1.2.5 1.2 1.2" class="st74"/><path id="Fill_282" d="M93.6 38.3c0 .7-.5 1.2-1.2 1.2s-1.2-.5-1.2-1.2.5-1.2 1.2-1.2 1.2.5 1.2 1.2" class="st40"/><path id="Fill_283" d="M93.4 31.9c0 .7-.5 1.2-1.2 1.2s-1.2-.5-1.2-1.2.5-1.2 1.2-1.2 1.2.6 1.2 1.2" class="st40"/><path id="Fill_284" d="M89.4 29.5c0 .7-.5 1.2-1.2 1.2s-1.2-.5-1.2-1.2.5-1.2 1.2-1.2 1.2.5 1.2 1.2" class="st40"/><path id="Fill_285" d="M90 35.6c0 .7-.5 1.2-1.2 1.2s-1.2-.5-1.2-1.2.5-1.2 1.2-1.2 1.2.5 1.2 1.2" style="fill:#cf4a55"/><path id="Fill_286" d="M86 33.3c0 .7-.5 1.2-1.2 1.2s-1.2-.5-1.2-1.2.5-1.2 1.2-1.2c.6 0 1.2.5 1.2 1.2" style="fill:#db7a83"/><path id="Fill_287" d="M63.1 3.6c0 .7-.5 1.2-1.2 1.2s-1.2-.5-1.2-1.2.5-1.2 1.2-1.2c.6 0 1.2.5 1.2 1.2" class="st181"/><path id="Fill_288" d="M58.8 5.3c0 .7-.5 1.2-1.2 1.2s-1.2-.5-1.2-1.2.5-1.2 1.2-1.2c.6 0 1.2.6 1.2 1.2" class="st181"/><path id="Fill_289" d="M53 2.8c0 .7-.5 1.2-1.2 1.2s-1.2-.5-1.2-1.2.5-1.2 1.2-1.2 1.2.6 1.2 1.2" class="st181"/><path id="Fill_290" d="M49.2 5.5c0 .7-.5 1.2-1.2 1.2s-1.2-.5-1.2-1.2.5-1.2 1.2-1.2c.7-.1 1.2.5 1.2 1.2 0-.1 0-.1 0 0" class="st181"/></g></svg>